<?xml version="1.0" encoding="UTF-8" standalone="no"?>
<!-- Created with Inkscape (http://www.inkscape.org/) -->

<svg
   width="100mm"
   height="100mm"
   viewBox="0 0 100 100"
   version="1.1"
   id="svg1"
   xml:space="preserve"
   xmlns="http://www.w3.org/2000/svg"
   xmlns:svg="http://www.w3.org/2000/svg"
   xmlns:rdf="http://www.w3.org/1999/02/22-rdf-syntax-ns#"
   xmlns:cc="http://creativecommons.org/ns#"
   xmlns:dc="http://purl.org/dc/elements/1.1/"><title
     id="title1">back</title><defs
     id="defs1" /><g
     id="layer1"
     transform="translate(-57.738058,-103.57875)"><rect
       style="fill:#00ff00;stroke-width:3.16187;paint-order:stroke fill markers"
       id="rect1"
       width="100.62766"
       height="100"
       x="57.738056"
       y="103.57875" /><rect
       style="fill:#008000;stroke-width:1.57599;paint-order:stroke fill markers"
       id="rect1-6"
       width="50"
       height="50"
       x="57.738056"
       y="103.57875" /><rect
       style="fill:#008000;stroke-width:1.57599;paint-order:stroke fill markers"
       id="rect1-6-3"
       width="50"
       height="50"
       x="107.73806"
       y="153.57875" /><path
       style="fill:#00ff00;stroke-width:0.781016;paint-order:stroke fill markers"
       d="m 143.23202,166.35459 c -13.68344,-6.3919 -24.45636,-6.14908 -26.91678,15.88574 -1.37472,3.16137 -3.37773,10.70475 -5.57718,13.50986 7.4343,2.58521 20.28396,6.79812 30.10478,3.78485 -15.61477,-12.22247 9.73877,-22.67954 6.40778,-1.92846 8.50708,-8.14216 11.339,-20.19382 0.0498,-28.6885 1.00695,-1.62904 4.49094,-6.07686 5.56268,-7.48545 1.0717,-1.40857 -6.57044,-4.85388 -6.57044,-4.85388"
       id="path1-8" /><path
       style="fill:#00ff00;stroke-width:0.781016;paint-order:stroke fill markers"
       d="m 93.232023,116.35459 c -13.68344,-6.3919 -24.456365,-6.14908 -26.916785,15.88574 -1.37472,3.16137 -3.37773,10.70475 -5.57718,13.50986 7.4343,2.58521 20.283955,6.79812 30.104775,3.78485 -15.614765,-12.22247 9.738767,-22.67954 6.40778,-1.92846 8.507077,-8.14216 11.338997,-20.19382 0.0498,-28.6885 1.00695,-1.62904 4.490937,-6.07686 5.562677,-7.48545 1.0717,-1.40857 -6.570427,-4.85388 -6.570427,-4.85388"
       id="path1-8-3" /></g><metadata
     id="metadata1"><rdf:RDF><cc:Work
         rdf:about=""><dc:title>back</dc:title></cc:Work></rdf:RDF></metadata></svg>
